<?xml version="1.0" encoding="UTF-8"?>
<svg id="Layer_2" data-name="Layer 2" xmlns="http://www.w3.org/2000/svg" viewBox="0 0 435.78 503.72">
  <defs>
    <style>
      .cls-1 {
        fill: #fff;
      }

      .cls-2 {
        fill: #1f2c38;
      }

      .cls-3 {
        fill: #6aa1ac;
      }
    </style>
  </defs>
  <g id="Layer_1-2" data-name="Layer 1">
    <g>
      <path class="cls-2" d="m226.66,20.2c2.42-3.84,3.95-8.38,9.2-9.71,5.62-1.43,10.29-.02,13.88,4.28,3.09,3.7,6.36,7,10.61,9.41,17.37,9.85,31.26,23.59,42.63,39.79,9.87,14.07,16.38,29.82,20.51,46.48.57,2.32,1.44,3.82,3.37,5.08,4.89,3.2,7.86,7.88,8.29,13.61.68,9.08,1.97,18.36-3.01,26.82-4.15,7.04-10.43,11.07-18.48,12.1-4.39.56-6.3,2.01-6.17,7.07.26,10.13.91,20.31-.48,30.44-3.88,28.3-15.29,52.93-35.55,73.29-4.31,4.33-4.25,4.25,1.62,6.56,16.58,6.52,34.13,10.44,50.07,18.66,1.89.97,2.5.18,3.48-1.22,9.43-13.43,18.93-26.8,28.41-40.19.1-.14.16-.29.26-.43,5.02-6.85,4.92-6.7-1.86-11.29-3.01-2.04-4.75-1.92-6.47,1.41-.89,1.73-2.45,3.13-3.82,4.58-3.23,3.41-6.77,3.9-10.65,1.02-4.25-3.15-8.8-5.9-12.79-9.44-3.64-3.24-4-7.18-1.51-10.69,7.9-11.12,16.04-22.09,24.5-32.8,2.83-3.58,7.39-2.89,10.99-.85,3.58,2.02,6.78,4.76,9.99,7.38,5.4,4.41,5.84,6.74,2.66,12.67-.76,1.42-1.47,3.03-2.63,4.06-2.96,2.63-1.47,3.86,1.05,5.53,8.44,5.63,8.76,5.93,13.91-2.92,4.32-7.43,10.86-7.23,16.56-2.93,7.2,5.43,14.26,11.01,22.18,15.53,8.92,5.1,9.58,10.87,3.57,19.71-.82,1.21-1.82,2.05.28,2.95,9.95,4.25,10.76,13.24,11.62,22.29.6,6.21,1.52,12.4,2.28,18.6.22,1.8.55,3.6.59,5.41.17,7.43-2.22,7.66-9.53,9.26-2.93.64-7.49-3.21-8.32-7.25-1.51-7.32-4.78-14.06-6.61-21.26-.28-1.11-.81-2.21-1.44-3.16-2.73-4.09-4.61-4.09-7.44-.15-11.83,16.49-23.59,33.01-35.55,49.4-1.83,2.51-1.68,3.98.24,6.32,14.69,17.93,21.91,38.48,21.69,61.75-.21,22.32-.06,44.64-.04,66.96.01,17.5-11.9,29.27-29.38,29.27-109.61-.03-219.22-.12-328.82.14-13.41.03-22.56-5.14-28.41-16.91C.72,483.95,0,480.99,0,477.84c.02-26.98.12-53.97.04-80.95-.03-10.57,3.86-20.11,7.25-29.78,4.03-11.48,11.04-21.27,18.58-30.6,18.78-23.25,44.35-35.67,72.06-44.6,6.78-2.18,13.44-4.74,20.2-6.98,2.94-.97,3.48-1.98,1.01-4.25-14.62-13.44-24.45-30.12-31.34-48.46-3.92-10.43-6.59-21.39-6.65-32.73-.05-8.83-.19-17.66-.1-26.48.03-2.88-.7-3.85-3.85-4.17-14.9-1.52-24.24-12.09-24.21-27.13.01-5.13-.5-10.27.63-15.42,1.01-4.6,3.58-7.99,7.49-9.89,3.02-1.46,4.08-3.6,4.58-6.41,2.71-14.94,9.45-27.92,17.05-41.04,8.22-14.19,19.61-24.88,31.44-35.31,5.84-5.15,12.8-9.28,20.06-12.57,1.51-.69,2.77-1.44,3.66-3.11,5.7-10.73,15.97-11.02,22.55-.75.43.67.98,1.26,1.47,1.89-.12,2.66-.35,5.31-.35,7.97-.02,19.99.03,39.98-.01,59.97,0,5.08-4.45,10.95-8.79,11.93-6.47,1.46-11.67-1.01-14.18-6.58-1.15-2.55-.89-5.19-.9-7.82-.02-13.07,0-26.13,0-39.66-1.4.54-2.17.74-2.85,1.12-.71.4-1.3.99-1.99,1.44-10.04,6.67-17.47,15.93-25.03,25.09-5.26,6.37-8.98,13.79-13.42,20.66-2.41,3.74-3.26,9.31-4.62,14.11-1.17,4.15-.64,5.42,4,5.41,66.97-.11,133.94-.05,200.91-.03.83,0,1.67-.02,2.5,0,1.93.05,2.89-.6,2.03-2.69-2.44-5.95-3.97-12.21-6.79-18.05-7.67-15.83-18.92-28.82-31.78-40.49-2.7-2.45-5.54-5.37-9.74-6.33,0,14.02.09,27.68-.04,41.34-.07,7.5-5.44,12.66-12.65,12.57-7.17-.09-11.14-4.54-11.15-12.44-.02-14.16-.03-28.32-.11-42.48-.04-7.98-.21-15.96-.33-23.94Zm68.29,422.46c-6.43-4.59-12.71-9.43-19.35-13.72-7.78-5.02-13.49-11.56-16.92-20.12-2.78-6.6-2.85-13.33,1.3-19.14,3.81-5.34,7.75-10.61,11.62-15.92,8.67-11.87,17.9-23.32,26.27-35.42,3.49-5.05,7.3-9.88,11.1-14.99-11.77-4.21-23.36-8.09-34.72-12.56-4.08-1.61-4.88.38-5.33,3.23-1.9,11.85-6.51,22.66-12.51,32.91-8.58,14.68-17.41,29.2-28.86,41.93-5.28,5.87-3.19,13.14-3.47,19.94.03,11.43.07,22.86.1,34.29-.07,9.8-.18,19.6-.19,29.4,0,6.31.91,7.23,7.12,7.25,12.96.05,25.92.03,38.88.04,11.96,0,23.93-.01,35.89.03,3.11.01,5.77-.39,5.77-4.38,0-9.3-.04-18.61-.01-27.91,0-2.19-.55-2.87-2.94-2.19-4.94,1.4-9.64.63-13.75-2.67Zm-130.25.35c.03-11.38.06-22.75.09-34.13-1.82-3.79-.57-7.82-.9-11.73-.15-1.79.02-3.45-1.27-5.13-9.12-11.93-18.37-23.79-25.9-36.83-7.49-12.96-15.03-25.93-16.97-41.23-.35-2.78-1.24-4.88-5.39-3.21-12.01,4.85-24.27,9.11-36.45,13.54-2.76,1.01-2.93,3.1-2.92,5.56.07,26.32.08,52.64.1,78.96.03,11.41.06,22.83.09,34.24-.06,10.48-.14,20.95-.19,31.43-.02,2.92.63,5.28,4.3,5.28,26.61-.02,53.23,0,79.84-.02,3.82,0,5.73-1.94,5.71-5.8-.06-10.31-.1-20.62-.14-30.93Zm28.86-154.01c6,.12,11.82-.27,17.69-1.62,18.41-4.24,33.41-14.1,46.18-27.59,6.58-6.95,12.3-14.82,16.03-23.55,4.5-10.53,7.95-21.55,9.31-33.08,1.16-9.8,1.42-8.13-6.17-12.31-6.7-3.69-12.11-9.18-16.89-15.17-3.04-3.82-6.04-6.43-11.79-6.28-19.13.51-38.3.56-57.43-.03-7.81-.24-14.35,1.98-20.79,5.66-1.98,1.13-3.85,2.49-5.91,3.46-18.31,8.62-36.96,16.34-56.88,20.42-1.86.38-2.39,1.25-1.98,2.59,1.04,3.36.4,6.92,1.3,10.22,4.5,16.37,10.78,31.78,21.9,45.1,17.16,20.57,38.37,32.17,65.42,32.2Zm171.99,144.87h.04c0-11.32-.12-22.64.05-33.96.09-6.14-.69-12.08-2.85-17.8-5.57-14.79-21.31-22.19-35-19.95-6.83,1.12-13.57,9.87-7.76,18.18,2.48,3.55,5.91,5.49,10.39,5.59,2.24.05,4.63-.81,6.72.86,2.79,2.23,5.08,4.85,3.71,8.6-1.23,3.37-3.72,5.81-7.68,5.83-6.99.03-13.99-.18-20.97,0-4.1.1-8.29.55-11.15,4.12-2.93,3.66-3.3,7.93-1.41,11.97,1.95,4.16,5.13,7.18,10.36,6.93,3.32-.16,6.66-.14,9.98,0,8.46.37,13.94,6.14,13.95,14.59.01,11.82.09,23.64-.09,35.46-.06,4.01,1.24,5.68,5.41,5.51,6.15-.26,12.32-.05,18.48-.06,6.37-.01,7.79-1.4,7.8-7.89.04-12.65.01-25.3.01-37.95Zm-172.14-76.99c10.58.4,20.35-2.13,28.96-8.38,14.22-10.32,21.96-24.65,24.3-41.74,1.26-9.18.63-9.19-8.23-5.07-15.48,7.19-31.44,12.16-48.84,10.39-2.97-.3-6.03.16-8.96-.29-12.7-1.94-24.88-5.61-36.09-12.01-3.58-2.05-3.84-.32-3.7,2.57.34,7.23,2.47,14.02,5.2,20.63,7.88,19.08,25.51,35.38,47.37,33.9Zm.62-221.85c-36.98,0-73.96.03-110.93-.04-4.04,0-6.87,1.19-7.14,5.52-.26,4.04,2.38,6.31,6.86,6.31,70.96-.01,141.91-.03,212.87-.04,3.33,0,6.67.12,9.99-.1,2.89-.2,5.41-1.14,6.23-4.51,1.2-4.96-.94-7.13-7.44-7.14-36.81-.02-73.62-.01-110.43,0Zm183.21,152.21c-1.88-1.46-3.62-3.04-5.58-4.27-2.59-1.62-5.14-2.44-6.22,1.82-.26,1.04-1.15,1.93-1.82,2.85-10.35,14.09-20.68,28.2-31.08,42.26-4.07,5.5-3.94,5.27.72,10.11,3.18,3.3,4.95,2.78,7.44-.77,11.22-16,22.67-31.84,34.02-47.76.83-1.17,1.48-2.47,2.52-4.24Z"/>
      <path class="cls-3" d="m226.66,20.2c.11,7.98.28,15.96.33,23.94.08,14.16.09,28.32.11,42.48.01,7.91,3.98,12.35,11.15,12.44,7.2.1,12.58-5.06,12.65-12.57.13-13.66.04-27.31.04-41.34,4.2.96,7.04,3.88,9.74,6.33,12.86,11.67,24.12,24.66,31.78,40.49,2.83,5.83,4.35,12.1,6.79,18.05.86,2.09-.1,2.73-2.03,2.69-.83-.02-1.67,0-2.5,0-66.97-.02-133.94-.08-200.91.03-4.64,0-5.18-1.26-4-5.41,1.36-4.8,2.2-10.37,4.62-14.11,4.44-6.87,8.16-14.29,13.42-20.66,7.56-9.15,14.99-18.42,25.03-25.09.68-.45,1.28-1.04,1.99-1.44.68-.38,1.45-.58,2.85-1.12,0,13.52-.01,26.59,0,39.66,0,2.63-.25,5.27.9,7.82,2.51,5.56,7.71,8.03,14.18,6.58,4.34-.98,8.78-6.85,8.79-11.93.04-19.99-.01-39.98.01-59.97,0-2.66.23-5.32.35-7.97,7,0,13.52-3.41,20.59-2.98.04,2.16.11,4.32.11,6.48-.02,21.77-.09,43.54-.06,65.31.01,9.03,9.26,13.64,16.84,9.99,5.52-2.66,6.37-7.59,6.41-12.63.16-21.44.01-42.88.07-64.31,0-1.68-.95-3.66.89-5.06,6.91.14,13.13,3.44,19.88,4.32Z"/>
      <path class="cls-2" d="m206.78,15.88c-1.84,1.4-.88,3.39-.89,5.06-.06,21.44.09,42.88-.07,64.31-.04,5.04-.89,9.97-6.41,12.63-7.58,3.65-16.83-.95-16.84-9.99-.03-21.77.04-43.54.06-65.31,0-2.16-.07-4.32-.11-6.48-1.74-6.86,1.49-12.99,8.11-15.38,5.65-2.05,11.8.4,14.41,5.64,1.5,3.02.43,6.48,1.73,9.51Z"/>
      <path class="cls-1" d="m193.57,289.01c-27.05-.02-48.27-11.62-65.42-32.2-11.11-13.33-17.4-28.73-21.9-45.1-.91-3.3-.26-6.86-1.3-10.22-.41-1.33.12-2.21,1.98-2.59,19.93-4.08,38.58-11.79,56.88-20.42,2.06-.97,3.93-2.32,5.91-3.46,6.44-3.68,12.98-5.9,20.79-5.66,19.13.59,38.3.53,57.43.03,5.74-.15,8.74,2.46,11.79,6.28,4.78,5.99,10.19,11.48,16.89,15.17,7.59,4.18,7.32,2.51,6.17,12.31-1.36,11.53-4.82,22.55-9.31,33.08-3.73,8.73-9.45,16.6-16.03,23.55-12.77,13.49-27.77,23.35-46.18,27.59-5.86,1.35-11.69,1.74-17.69,1.62Zm-.57-20.95c4.14-.22,8.25.25,12.26-1.15,8.63-3.02,16.5-7.13,21.36-15.3,2.71-4.55,1.74-9.47-2.02-12.42-3.19-2.5-6.72-1.74-10.83,2.33-.59.59-1.16,1.19-1.76,1.77-4.37,4.23-8.8,6.78-15.63,7.36-9.94.85-17.1-1.41-22.88-9.32-2.55-3.48-8.07-4.38-11.05-2.26-3.39,2.41-4.22,7.21-1.97,11.1,7.25,12.54,18.36,17.98,32.51,17.88Zm52.87-64.92c.08-9.03-6.06-15.03-15.49-15.14-7.05-.08-13.47,6.84-13.57,14.6-.09,7.46,7.15,15.25,14.28,15.35,8.22.12,14.71-6.39,14.79-14.81Zm-90.67,14.82c7.58-.49,15.58-6.3,15.66-15.08.07-7.29-6.62-13.89-13.7-13.92-9.66-.04-16.27,5.48-16.26,14.17,0,6.16,6.42,14.82,14.29,14.83Z"/>
      <path class="cls-1" d="m75.1,408.82c-.03-26.32-.04-52.64-.1-78.97,0-2.46.16-4.56,2.92-5.56,12.18-4.43,24.44-8.69,36.45-13.54,4.14-1.67,5.04.43,5.39,3.21,1.94,15.3,9.47,28.26,16.97,41.23,7.53,13.04,16.78,24.9,25.9,36.83,1.29,1.69,1.12,3.35,1.27,5.13.34,3.91-.91,7.94.9,11.73-17.61.07-35.22.2-52.82.2-12.29,0-24.58-.17-36.87-.26Z"/>
      <path class="cls-1" d="m365.56,433.88c0,12.65.03,25.3-.01,37.95-.02,6.49-1.43,7.88-7.8,7.89-6.16.01-12.33-.19-18.48.06-4.18.18-5.48-1.5-5.41-5.51.18-11.82.1-23.64.09-35.46,0-8.45-5.49-14.22-13.95-14.59-3.32-.15-6.66-.17-9.98,0-5.23.25-8.41-2.77-10.36-6.93-1.89-4.03-1.51-8.31,1.41-11.97,2.86-3.57,7.05-4.02,11.15-4.12,6.99-.17,13.98.04,20.97,0,3.96-.02,6.45-2.46,7.68-5.83,1.37-3.75-.93-6.37-3.71-8.6-2.09-1.67-4.48-.81-6.72-.86-4.48-.1-7.9-2.03-10.39-5.59-5.8-8.31.93-17.07,7.76-18.18,13.69-2.24,29.43,5.17,35,19.95,2.16,5.72,2.94,11.66,2.85,17.8-.17,11.32-.05,22.64-.05,33.96h-.04Z"/>
      <path class="cls-1" d="m193.42,356.9c-21.86,1.48-39.48-14.82-47.37-33.91-2.73-6.61-4.86-13.4-5.2-20.63-.14-2.89.12-4.62,3.7-2.57,11.21,6.4,23.39,10.07,36.09,12.01,2.93.45,5.99,0,8.96.29,17.41,1.77,33.37-3.21,48.84-10.39,8.87-4.12,9.49-4.11,8.23,5.07-2.34,17.08-10.08,31.42-24.3,41.74-8.62,6.25-18.38,8.79-28.96,8.39Z"/>
      <path class="cls-1" d="m164.71,443.01c.05,10.31.08,20.62.14,30.93.02,3.86-1.89,5.8-5.71,5.8-26.61.02-53.23,0-79.84.02-3.67,0-4.32-2.36-4.3-5.28.05-10.48.12-20.95.19-31.43,29.84-.02,59.68-.03,89.52-.05Z"/>
      <path class="cls-1" d="m224.09,408.79c.28-6.8-1.81-14.07,3.47-19.94,11.45-12.72,20.27-27.25,28.86-41.93,6-10.25,10.61-21.06,12.51-32.91.46-2.85,1.25-4.84,5.33-3.23,11.35,4.48,22.94,8.35,34.72,12.56-3.8,5.11-7.61,9.94-11.1,14.99-8.37,12.1-17.6,23.55-26.27,35.42-3.88,5.31-7.81,10.58-11.62,15.92-4.14,5.81-4.08,12.53-1.3,19.14-11.53.53-23.06.55-34.59-.03Z"/>
      <path class="cls-1" d="m294.95,442.66c4.12,3.3,8.81,4.07,13.75,2.67,2.39-.68,2.95,0,2.94,2.19-.03,9.3.01,18.61.01,27.91,0,3.98-2.66,4.39-5.77,4.38-11.96-.05-23.93-.03-35.89-.03-12.96,0-25.92,0-38.88-.04-6.21-.03-7.12-.94-7.12-7.25,0-9.8.12-19.6.19-29.4,4.49-.04,8.97-.1,13.46-.12,19.1-.1,38.21-.2,57.31-.3Z"/>
      <path class="cls-3" d="m164.71,443.01c-29.84.02-59.68.03-89.52.05-.03-11.42-.06-22.83-.09-34.24,12.29.1,24.58.27,36.87.26,17.61,0,35.22-.13,52.82-.2-.03,11.38-.06,22.75-.09,34.13Z"/>
      <path class="cls-1" d="m194.04,135.03c36.81,0,73.62-.01,110.43.01,6.5,0,8.64,2.17,7.44,7.14-.81,3.37-3.34,4.31-6.23,4.51-3.32.22-6.66.1-9.99.1-70.96.02-141.91.03-212.87.04-4.48,0-7.12-2.27-6.86-6.31.28-4.33,3.1-5.53,7.14-5.52,36.98.08,73.96.04,110.93.03Z"/>
      <path class="cls-3" d="m294.95,442.66c-19.1.1-38.21.19-57.31.3-4.49.02-8.97.08-13.46.12-.03-11.43-.07-22.86-.1-34.28,11.53.58,23.06.56,34.59.03,3.44,8.56,9.15,15.1,16.92,20.12,6.64,4.28,12.91,9.12,19.35,13.72Z"/>
      <path class="cls-1" d="m377.25,287.25c-1.04,1.77-1.68,3.07-2.52,4.24-11.35,15.92-22.8,31.76-34.02,47.76-2.49,3.55-4.26,4.07-7.44.77-4.66-4.84-4.79-4.61-.72-10.11,10.4-14.06,20.73-28.17,31.08-42.26.67-.91,1.56-1.81,1.82-2.85,1.08-4.26,3.62-3.44,6.22-1.82,1.96,1.22,3.7,2.81,5.58,4.27Z"/>
      <path class="cls-2" d="m193,268.06c-14.15.1-25.26-5.34-32.51-17.88-2.25-3.89-1.43-8.7,1.97-11.1,2.98-2.11,8.5-1.22,11.05,2.26,5.78,7.91,12.94,10.17,22.88,9.32,6.83-.58,11.26-3.13,15.63-7.36.6-.58,1.17-1.19,1.76-1.77,4.11-4.07,7.64-4.83,10.83-2.33,3.76,2.95,4.72,7.87,2.02,12.42-4.86,8.17-12.73,12.28-21.36,15.3-4,1.4-8.11.92-12.26,1.15Z"/>
      <path class="cls-2" d="m245.87,203.14c-.07,8.42-6.57,14.93-14.79,14.81-7.13-.1-14.37-7.89-14.28-15.35.1-7.76,6.52-14.68,13.57-14.6,9.43.11,15.57,6.11,15.49,15.14Z"/>
      <path class="cls-2" d="m155.2,217.95c-7.87-.01-14.28-8.67-14.29-14.83,0-8.69,6.6-14.21,16.26-14.17,7.08.03,13.77,6.63,13.7,13.92-.08,8.78-8.08,14.59-15.66,15.08Z"/>
    </g>
  </g>
</svg>